<svg width="48" height="48" viewBox="0 0 48 48" fill="none" xmlns="http://www.w3.org/2000/svg">
<path fill-rule="evenodd" clip-rule="evenodd" d="M7.39746 10.5264V38.4074H4.39746V10.5264H7.39746Z" fill="#1B344B"/>
<path fill-rule="evenodd" clip-rule="evenodd" d="M5.89835 4.5C4.57378 4.5 3.5 5.57378 3.5 6.89835C3.5 8.22292 4.57378 9.2967 5.89835 9.2967C7.22292 9.2967 8.2967 8.22292 8.2967 6.89835C8.2967 5.57378 7.22292 4.5 5.89835 4.5ZM0.5 6.89835C0.5 3.91692 2.91692 1.5 5.89835 1.5C8.87978 1.5 11.2967 3.91692 11.2967 6.89835C11.2967 9.87978 8.87978 12.2967 5.89835 12.2967C2.91692 12.2967 0.5 9.87978 0.5 6.89835Z" fill="#1B344B"/>
<path fill-rule="evenodd" clip-rule="evenodd" d="M5.89835 39.0303C4.57378 39.0303 3.5 40.1041 3.5 41.4286C3.5 42.7532 4.57378 43.827 5.89835 43.827C7.22293 43.827 8.2967 42.7532 8.2967 41.4286C8.2967 40.1041 7.22293 39.0303 5.89835 39.0303ZM0.5 41.4286C0.5 38.4472 2.91692 36.0303 5.89835 36.0303C8.87978 36.0303 11.2967 38.4472 11.2967 41.4286C11.2967 44.4101 8.87978 46.827 5.89835 46.827C2.91692 46.827 0.5 44.4101 0.5 41.4286Z" fill="#1B344B"/>
<path fill-rule="evenodd" clip-rule="evenodd" d="M37.416 18.583L37.416 24.083L34.416 24.083L34.416 18.583L37.416 18.583Z" fill="#1B344B"/>
<path fill-rule="evenodd" clip-rule="evenodd" d="M35.4576 25.583C30.4641 25.583 26.416 29.6311 26.416 34.6246C26.416 39.6182 30.4641 43.6663 35.4576 43.6663C40.4512 43.6663 44.4993 39.6182 44.4993 34.6246C44.4993 29.6311 40.4512 25.583 35.4576 25.583ZM23.416 34.6246C23.416 27.9742 28.8072 22.583 35.4576 22.583C42.1081 22.583 47.4993 27.9742 47.4993 34.6246C47.4993 41.275 42.1081 46.6663 35.4576 46.6663C28.8072 46.6663 23.416 41.275 23.416 34.6246Z" fill="#1B344B"/>
<path fill-rule="evenodd" clip-rule="evenodd" d="M16.3535 5.39746H23.9C31.3654 5.39746 37.4168 11.4488 37.4168 18.9142H34.4168C34.4168 13.1057 29.7085 8.39746 23.9 8.39746H16.3535V5.39746Z" fill="#1B344B"/>
<path fill-rule="evenodd" clip-rule="evenodd" d="M20.711 1.93934C21.2968 2.52513 21.2968 3.47487 20.711 4.06066L17.8733 6.89835L20.711 9.73604C21.2968 10.3218 21.2968 11.2716 20.711 11.8574C20.1252 12.4432 19.1754 12.4432 18.5896 11.8574L14.6913 7.95901C14.1055 7.37323 14.1055 6.42348 14.6913 5.83769L18.5896 1.93934C19.1754 1.35355 20.1252 1.35355 20.711 1.93934Z" fill="#1B344B"/>
<path fill-rule="evenodd" clip-rule="evenodd" d="M35.583 29.583C36.4114 29.583 37.083 30.2546 37.083 31.083L37.083 35.4163C37.083 36.2447 36.4114 36.9163 35.583 36.9163C34.7546 36.9163 34.083 36.2447 34.083 35.4163L34.083 31.083C34.083 30.2546 34.7546 29.583 35.583 29.583Z" fill="#1B344B"/>
<path fill-rule="evenodd" clip-rule="evenodd" d="M34.8554 34.9393C35.4411 34.3536 36.3909 34.3536 36.9767 34.9393L38.81 36.7727C39.3958 37.3585 39.3958 38.3082 38.81 38.894C38.2242 39.4798 37.2745 39.4798 36.6887 38.894L34.8554 37.0607C34.2696 36.4749 34.2696 35.5251 34.8554 34.9393Z" fill="#1B344B"/>
</svg>
